<?xml version="1.0" encoding="UTF-8"?>
<svg width="24px" height="24px" viewBox="0 0 24 24" version="1.1" xmlns="http://www.w3.org/2000/svg" xmlns:xlink="http://www.w3.org/1999/xlink">
    <!-- Generator: Sketch 60 (88103) - https://sketch.com -->
    <title>Group 2</title>
    <desc>Created with Sketch.</desc>
    <g id="Symbols" stroke="none" stroke-width="1" fill="none" fill-rule="evenodd">
        <g id="Logos-/-Logo-Group">
            <g id="Group-3">
                <g id="Group-2">
                    <rect id="Rectangle" fill="#D7D7D7" x="0" y="0" width="24" height="24" rx="6"></rect>
                    <g id="Logos-/-logo" transform="translate(6.000000, 6.000000)" fill="#FFFFFF">
                        <g id="Group">
                            <path d="M4.0377621,0 C5.16327633,0 6.1152595,0.389234498 6.89374017,1.16771517 L5.96519558,2.30729263 C5.3180249,1.74453552 4.66617435,1.46316118 4.00962438,1.46316118 C3.35307442,1.46316118 2.78329139,1.68122629 2.3002582,2.11736305 C1.81722501,2.55349982 1.57571204,3.11624849 1.57571204,3.80562595 C1.57571204,4.49500342 1.81488022,5.07885516 2.29322377,5.55719871 C2.77156732,6.03554226 3.36010864,6.27471044 4.05886539,6.27471044 C4.75762214,6.27471044 5.41650704,5.95581953 6.03553986,5.31802813 C6.0458508,5.30824888 6.05749815,5.29744023 6.0692388,5.28668383 C6.85240912,4.56916851 7.83028066,4.2295082 8.95579489,4.2295082 C10.0813091,4.2295082 11.0332923,4.61874269 11.811773,5.39722337 L10.8832284,6.53680083 C10.2360577,5.97404371 9.58420714,5.69266938 8.92765717,5.69266938 C8.27110721,5.69266938 7.70132418,5.91073449 7.21829099,6.34687125 C6.7352578,6.78300801 6.49374483,7.34575668 6.49374483,8.03513415 C6.49374483,8.72451161 6.73291301,9.30836336 7.21125656,9.78670691 C7.6896001,10.2650505 8.27814142,10.5042186 8.97689817,10.5042186 C9.67565492,10.5042186 10.3345398,10.1853277 10.9535727,9.54753633 L11.8821172,10.5604941 C10.9723266,11.479664 9.92186239,11.9392421 8.73069317,11.9392421 C7.68959251,11.9392421 6.7938842,11.5851794 6.04354139,10.8770434 C5.29319857,10.1689073 4.91803279,9.2427168 4.91803279,8.09844401 C4.91803279,7.91303926 4.92769491,7.73273554 4.9472195,7.55769514 C4.58561562,7.65940639 4.20684217,7.7097339 3.81266038,7.7097339 C2.77155972,7.7097339 1.87585142,7.3556712 1.1255086,6.64753516 C0.375165781,5.93939913 -2.93098879e-14,5.01320861 -2.93098879e-14,3.86893581 C-2.93098879e-14,2.72466301 0.391579284,1.79378292 1.1747496,1.0762676 C1.95791992,0.358752278 2.91224787,0 4.0377621,0 Z" id="Combined-Shape"></path>
                        </g>
                    </g>
                </g>
            </g>
        </g>
    </g>
</svg>